<svg className='logo-app' xmlns="http://www.w3.org/2000/svg" id="Capa_2" data-name="Capa 2" viewBox="0 0 330.01 302">
    <path className="cls-2" fill='#00C2FF' d="m240.77,0l-106.83,26.71S39.5,1.95,8.23,39.73c0,0-31.92,48.85,29.96,168.06,0,0-16.28,53.41,20.19,59.93,0,0-45.53-41.79,31.33-79.57,0,0,11.01-5.76,22.08-3.8l-12.38-110.73L240.77,0Z" />
    <path className="cls-1" fill='#ffffff' d="m204.29,66.44l-83.91,33.87,11.19,114.01s2.01,41.9-45.83,56.65c0,0,41.69,49.5,118.55,23.45,0,0,125.72-46.94,125.72-132.23,0,0-2.8-43.11-89.24-91.84v88.59s21.6,34.09-11.07,61.88c-33.33,28.35-58.29,9.94-58.29,9.94,0,0-17.9-17.4-1.43-51.63,0,0,9.56-23.45,42.13-28.66l-7.82-84.03Z" />
</svg>